<svg width="60" height="53" viewBox="0 0 60 53" fill="none" xmlns="http://www.w3.org/2000/svg">
<path d="M21.342 38.4489C31.2234 37.9087 39.0668 29.8508 39.0668 19.9892C39.0668 9.77788 30.6572 1.5 20.2834 1.5C9.90961 1.5 1.5 9.77788 1.5 19.9892C1.5 23.6276 2.56733 27.0203 4.41108 29.8808L3.08363 33.8007L3.08151 33.8065C2.57308 35.3079 2.31876 36.0589 2.49985 36.5588C2.65766 36.9944 3.00795 37.3378 3.45049 37.4931C3.95663 37.6708 4.71429 37.4222 6.22932 36.9251L6.25088 36.9186L10.2344 35.612C13.1404 37.4268 16.5873 38.4778 20.2836 38.4778C20.6388 38.4778 20.9916 38.4681 21.342 38.4489ZM21.342 38.4489C21.3422 38.4496 21.3417 38.4482 21.342 38.4489ZM21.342 38.4489C23.9119 45.6457 30.8775 50.8049 39.0672 50.8049C42.7635 50.8049 46.2097 49.7531 49.1154 47.9381L53.0981 49.2448L53.1059 49.2463C54.6309 49.7467 55.3953 49.9975 55.9031 49.8192C56.3456 49.6639 56.6915 49.3205 56.8493 48.8849C57.0306 48.3843 56.777 47.6324 56.2672 46.1269L54.9397 42.2069L55.3844 41.4816C56.9541 38.7801 57.8485 35.6504 57.8485 32.3153C57.8485 22.104 49.4405 13.8261 39.0668 13.8261L38.3636 13.8389L38.009 13.8559" stroke="#8D8D8D" stroke-width="3" stroke-linecap="round" stroke-linejoin="round"/>
</svg>
