<svg width="62" height="53" viewBox="0 0 62 53" fill="none" xmlns="http://www.w3.org/2000/svg">
<path d="M46.6962 50.8049C46.6962 45.3589 39.4694 40.9439 30.5547 40.9439C21.64 40.9439 14.4132 45.3589 14.4132 50.8049M59.6094 40.9452C59.6094 36.9015 55.6254 33.4264 49.9245 31.9047M1.5 40.9452C1.5 36.9015 5.48403 33.4264 11.1849 31.9047M49.9245 18.7111C51.9059 16.9054 53.1528 14.2815 53.1528 11.361C53.1528 5.91491 48.8167 1.5 43.4679 1.5C40.9874 1.5 38.7247 2.44946 37.0113 4.01091M11.1849 18.7111C9.20353 16.9054 7.9566 14.2815 7.9566 11.361C7.9566 5.91491 12.2927 1.5 17.6415 1.5C20.122 1.5 22.3847 2.44946 24.0981 4.01091M30.5547 31.083C25.2059 31.083 20.8698 26.668 20.8698 21.222C20.8698 15.7759 25.2059 11.361 30.5547 11.361C35.9035 11.361 40.2396 15.7759 40.2396 21.222C40.2396 26.668 35.9035 31.083 30.5547 31.083Z" stroke="#8D8D8D" stroke-width="3" stroke-linecap="round" stroke-linejoin="round"/>
</svg>
