<svg width="50" height="50" viewBox="0 0 50 50" fill="none" xmlns="http://www.w3.org/2000/svg">
<path d="M31.1352 2.604C28.2873 2.604 25.9893 2.604 24.1831 2.84775C22.3081 3.09775 20.7289 3.63942 19.4748 4.8915C18.3831 5.98525 17.8289 7.329 17.5393 8.90817C17.2581 10.4436 17.2039 12.3207 17.1914 14.5748C17.1892 14.9892 17.3517 15.3875 17.6432 15.6821C17.9346 15.9767 18.3312 16.1435 18.7456 16.1457C19.16 16.1479 19.5583 15.9854 19.8529 15.6939C20.1475 15.4025 20.3142 15.0059 20.3164 14.5915C20.3289 12.3144 20.3873 10.6998 20.6123 9.47275C20.831 8.29359 21.1789 7.60817 21.6852 7.10192C22.2623 6.52484 23.0727 6.14984 24.6018 5.94359C26.1748 5.73317 28.2602 5.729 31.2498 5.729H33.3331C36.3248 5.729 38.4102 5.73317 39.9831 5.94359C41.5123 6.14984 42.3206 6.52692 42.8998 7.10192C43.4748 7.679 43.8498 8.48734 44.056 10.0186C44.2685 11.5894 44.2706 13.6769 44.2706 16.6665V33.3332C44.2706 36.3228 44.2685 38.4082 44.056 39.9832C43.8498 41.5123 43.4748 42.3207 42.8977 42.8978C42.3206 43.4748 41.5123 43.8498 39.9831 44.0561C38.4102 44.2665 36.3248 44.2707 33.3331 44.2707H31.2498C28.2602 44.2707 26.1748 44.2665 24.5998 44.0561C23.0727 43.8498 22.2623 43.4728 21.6852 42.8978C21.1789 42.3894 20.831 41.7061 20.6123 40.5269C20.3873 39.2998 20.3289 37.6853 20.3164 35.4082C20.3153 35.203 20.2738 35 20.1943 34.8109C20.1148 34.6217 19.9988 34.4501 19.8529 34.3058C19.707 34.1614 19.5342 34.0473 19.3442 33.9698C19.1542 33.8922 18.9508 33.8529 18.7456 33.854C18.5404 33.8551 18.3374 33.8966 18.1483 33.9761C17.9591 34.0557 17.7875 34.1717 17.6432 34.3175C17.4989 34.4634 17.3847 34.6363 17.3072 34.8263C17.2297 35.0163 17.1903 35.2196 17.1914 35.4248C17.2039 37.679 17.2581 39.5561 17.5393 41.0915C17.831 42.6707 18.3831 44.0144 19.4768 45.1082C20.7289 46.3623 22.3102 46.8998 24.1852 47.154C25.9893 47.3957 28.2873 47.3957 31.1352 47.3957H33.4477C36.2977 47.3957 38.5935 47.3957 40.3998 47.154C42.2748 46.8998 43.8539 46.3623 45.1081 45.1082C46.3623 43.854 46.8998 42.2748 47.1539 40.3998C47.3956 38.5936 47.3956 36.2957 47.3956 33.4478V16.5519C47.3956 13.704 47.3956 11.4061 47.1539 9.59984C46.9018 7.72484 46.3623 6.14567 45.1081 4.8915C43.8539 3.63734 42.2748 3.09984 40.3998 2.84775C38.5935 2.604 36.2956 2.604 33.4477 2.604H31.1352Z" fill="#8A38F5"/>
<path d="M31.2505 23.4373C31.6649 23.4373 32.0623 23.6019 32.3554 23.8949C32.6484 24.188 32.813 24.5854 32.813 24.9998C32.813 25.4142 32.6484 25.8116 32.3554 26.1046C32.0623 26.3977 31.6649 26.5623 31.2505 26.5623H8.39009L12.4755 30.0623C12.7905 30.3319 12.9854 30.7156 13.0174 31.129C13.0495 31.5423 12.916 31.9515 12.6463 32.2664C12.3767 32.5814 11.993 32.7763 11.5796 32.8084C11.1663 32.8404 10.7571 32.7069 10.4422 32.4373L3.15051 26.1873C2.97898 26.0406 2.84126 25.8585 2.74684 25.6535C2.65241 25.4485 2.60352 25.2255 2.60352 24.9998C2.60352 24.7741 2.65241 24.5511 2.74684 24.3461C2.84126 24.1411 2.97898 23.959 3.15051 23.8123L10.4422 17.5623C10.5981 17.4288 10.7788 17.3273 10.974 17.2636C11.1692 17.1999 11.375 17.1753 11.5796 17.1912C11.7843 17.2071 11.9839 17.2631 12.1669 17.3561C12.3499 17.449 12.5128 17.5772 12.6463 17.7331C12.7799 17.8891 12.8813 18.0698 12.945 18.2649C13.0087 18.4601 13.0333 18.6659 13.0174 18.8706C13.0016 19.0753 12.9455 19.2748 12.8526 19.4578C12.7596 19.6409 12.6315 19.8038 12.4755 19.9373L8.39218 23.4373H31.2505Z" fill="#8A38F5"/>
</svg>
