<svg width="53" height="53" viewBox="0 0 53 53" fill="none" xmlns="http://www.w3.org/2000/svg">
<path d="M40.4417 46.2368C36.9308 42.3157 31.8298 39.8483 26.1525 39.8483C20.4751 39.8483 15.3736 42.3157 11.8628 46.2368M26.1525 50.8049C12.5373 50.8049 1.5 39.7676 1.5 26.1525C1.5 12.5373 12.5373 1.5 26.1525 1.5C39.7676 1.5 50.8049 12.5373 50.8049 26.1525C50.8049 39.7676 39.7676 50.8049 26.1525 50.8049ZM26.1525 31.6308C21.6141 31.6308 17.935 27.9517 17.935 23.4133C17.935 18.8749 21.6141 15.1958 26.1525 15.1958C30.6909 15.1958 34.3699 18.8749 34.3699 23.4133C34.3699 27.9517 30.6909 31.6308 26.1525 31.6308Z" stroke="#8D8D8D" stroke-width="3" stroke-linecap="round" stroke-linejoin="round"/>
</svg>
